<?xml version="1.0" standalone="no"?>
<!DOCTYPE svg PUBLIC "-//W3C//DTD SVG 20010904//EN"
 "http://www.w3.org/TR/2001/REC-SVG-20010904/DTD/svg10.dtd">
<svg version="1.0" xmlns="http://www.w3.org/2000/svg"
 width="512.000000pt" height="512.000000pt" viewBox="0 0 512.000000 512.000000"
 preserveAspectRatio="xMidYMid meet">
<metadata>
Created by potrace 1.14, written by Peter Selinger 2001-2017
</metadata>
<g transform="translate(0.000000,512.000000) scale(0.100000,-0.100000)"
fill="#000000" stroke="none">
<path d="M605 5106 c-288 -60 -516 -280 -584 -563 -18 -76 -22 -249 -7 -313 3
-14 8 -38 12 -53 31 -143 163 -331 294 -420 25 -17 46 -31 48 -32 2 -2 -17
-38 -40 -82 -107 -192 -182 -369 -236 -553 -45 -155 -59 -225 -81 -395 -9 -69
-7 -690 2 -731 3 -11 8 -54 11 -95 4 -41 9 -88 12 -104 15 -91 24 -143 29
-171 2 -17 16 -75 30 -128 182 -701 666 -1156 1435 -1351 97 -24 128 -31 190
-41 19 -3 42 -7 50 -9 8 -3 33 -7 55 -10 22 -4 51 -8 65 -11 14 -2 48 -6 75
-9 28 -4 64 -8 80 -10 218 -26 950 -26 1029 0 6 2 38 7 71 9 33 3 71 8 84 11
14 2 47 7 75 10 28 3 58 8 66 10 8 2 27 7 43 10 68 13 87 17 162 36 474 119
810 313 1078 622 203 234 351 564 413 923 3 16 7 36 9 44 2 8 7 42 10 75 4 33
8 71 11 85 18 102 26 709 12 840 -34 309 -158 677 -321 953 -22 37 -38 69 -36
71 2 1 24 17 49 33 148 101 264 277 306 467 13 54 11 236 -2 296 -53 249 -226
454 -461 546 -46 18 -83 31 -83 29 0 -3 -12 0 -27 6 -45 18 -239 19 -311 3
-203 -47 -371 -160 -472 -315 l-36 -56 -65 24 c-88 34 -231 70 -315 79 -77 9
-245 8 -302 -1 -115 -17 -171 -31 -306 -76 -82 -27 -156 -49 -165 -49 -8 0
-82 22 -165 49 -180 59 -303 82 -446 83 -174 2 -317 -23 -465 -81 l-76 -29
-38 56 c-111 163 -271 270 -475 319 -48 11 -235 10 -291 -1z"/>
</g>
</svg>
